<svg width="60" height="60" viewBox="0 0 60 60" fill="none" xmlns="http://www.w3.org/2000/svg">
<path d="M30 50C31.3807 50 32.5 48.8807 32.5 47.5C32.5 46.1193 31.3807 45 30 45C28.6193 45 27.5 46.1193 27.5 47.5C27.5 48.8807 28.6193 50 30 50Z" fill="#181A18"/>
<path d="M29.9992 35C26.7636 35 23.6539 36.2546 21.3242 38.5C20.8468 38.9609 20.5721 39.5924 20.5603 40.2558C20.5486 40.9193 20.8009 41.5602 21.2617 42.0375C21.7225 42.5149 22.3541 42.7897 23.0175 42.8014C23.6809 42.8131 24.3218 42.5609 24.7992 42.1C26.219 40.8 28.0742 40.0789 29.9992 40.0789C31.9243 40.0789 33.7795 40.8 35.1992 42.1C35.6766 42.5609 36.3175 42.8131 36.9809 42.8014C37.6443 42.7897 38.2759 42.5149 38.7367 42.0375C39.1975 41.5602 39.4498 40.9193 39.4381 40.2558C39.4264 39.5924 39.1516 38.9609 38.6742 38.5C36.3445 36.2546 33.2349 35 29.9992 35ZM29.9992 22.5C26.9798 22.502 23.9916 23.1117 21.2127 24.2929C18.4338 25.474 15.9211 27.2024 13.8242 29.375C13.5961 29.6163 13.4177 29.9002 13.2992 30.2105C13.1807 30.5207 13.1245 30.8513 13.1338 31.1833C13.1431 31.5152 13.2177 31.8421 13.3533 32.1453C13.4889 32.4484 13.6829 32.7219 13.9242 32.95C14.4116 33.4109 15.062 33.6592 15.7324 33.6404C16.0644 33.6312 16.3913 33.5566 16.6944 33.421C16.9976 33.2853 17.2711 33.0913 17.4992 32.85C19.1317 31.1564 21.0889 29.8092 23.2538 28.889C25.4187 27.9688 27.7469 27.4946 30.0992 27.4946C32.4516 27.4946 34.7798 27.9688 36.9447 28.889C39.1096 29.8092 41.0668 31.1564 42.6992 32.85C42.9308 33.0863 43.2069 33.2742 43.5116 33.4029C43.8163 33.5317 44.1435 33.5987 44.4742 33.6C44.9628 33.5982 45.4401 33.4532 45.8472 33.1831C46.2542 32.9129 46.5732 32.5294 46.7647 32.0799C46.9562 31.6305 47.0118 31.1347 46.9246 30.654C46.8375 30.1733 46.6113 29.7287 46.2742 29.375C44.1657 27.1902 41.6368 25.4548 38.8398 24.2733C36.0427 23.0918 33.0355 22.4886 29.9992 22.5Z" fill="#181A18"/>
<path d="M54.2998 19.825C47.7759 13.5315 39.0647 10.0145 29.9998 10.0145C20.935 10.0145 12.2238 13.5315 5.69984 19.825C5.27794 20.2942 5.04902 20.9055 5.05901 21.5364C5.06901 22.1672 5.31718 22.771 5.75373 23.2265C6.19029 23.6821 6.78294 23.9557 7.41281 23.9925C8.04268 24.0293 8.66318 23.8266 9.14984 23.425C14.7438 18.0178 22.2197 14.9953 29.9998 14.9953C37.78 14.9953 45.2558 18.0178 50.8498 23.425C51.3133 23.8717 51.9312 24.1225 52.5748 24.125C52.9116 24.1238 53.2446 24.0544 53.5539 23.9213C53.8633 23.7881 54.1425 23.5938 54.3748 23.35C54.8306 22.8718 55.0786 22.2326 55.0646 21.5721C55.0505 20.9116 54.7756 20.2835 54.2998 19.825Z" fill="#181A18"/>
</svg>
