<svg width="60" height="60" viewBox="0 0 60 60" fill="none" xmlns="http://www.w3.org/2000/svg">
<path d="M47.6744 12.3251C43.5725 8.19631 38.1585 5.62809 32.366 5.06316C26.5735 4.49823 20.7653 5.972 15.9429 9.23038C11.1205 12.4888 7.58603 17.3276 5.94885 22.9126C4.31167 28.4976 4.67438 34.4788 6.97444 39.8251C7.21417 40.322 7.29282 40.8813 7.19944 41.4251L4.99944 52.0001C4.91468 52.4055 4.93199 52.8257 5.04981 53.2228C5.16763 53.6199 5.38227 53.9814 5.67444 54.2751C5.91395 54.5128 6.19913 54.6996 6.51278 54.8242C6.82643 54.9488 7.16206 55.0087 7.49944 55.0001H7.99944L18.6994 52.8501C19.2433 52.7847 19.7947 52.8622 20.2994 53.0751C25.6457 55.3751 31.6269 55.7378 37.2119 54.1006C42.7969 52.4635 47.6357 48.929 50.8941 44.1066C54.1525 39.2842 55.6263 33.476 55.0613 27.6835C54.4964 21.891 51.9282 16.477 47.7994 12.3751L47.6744 12.3251ZM19.9994 32.5001C19.505 32.5001 19.0216 32.3534 18.6105 32.0787C18.1994 31.804 17.879 31.4136 17.6897 30.9568C17.5005 30.5 17.451 29.9973 17.5475 29.5123C17.6439 29.0274 17.882 28.5819 18.2317 28.2323C18.5813 27.8827 19.0268 27.6446 19.5117 27.5481C19.9967 27.4516 20.4993 27.5011 20.9562 27.6904C21.413 27.8796 21.8034 28.2 22.0781 28.6111C22.3528 29.0223 22.4994 29.5056 22.4994 30.0001C22.4994 30.6631 22.236 31.299 21.7672 31.7678C21.2984 32.2367 20.6625 32.5001 19.9994 32.5001ZM29.9994 32.5001C29.505 32.5001 29.0216 32.3534 28.6105 32.0787C28.1994 31.804 27.879 31.4136 27.6897 30.9568C27.5005 30.5 27.451 29.9973 27.5475 29.5123C27.6439 29.0274 27.882 28.5819 28.2317 28.2323C28.5813 27.8827 29.0268 27.6446 29.5117 27.5481C29.9967 27.4516 30.4993 27.5011 30.9562 27.6904C31.413 27.8796 31.8034 28.2 32.0781 28.6111C32.3528 29.0223 32.4994 29.5056 32.4994 30.0001C32.4994 30.6631 32.236 31.299 31.7672 31.7678C31.2984 32.2367 30.6625 32.5001 29.9994 32.5001ZM39.9994 32.5001C39.505 32.5001 39.0216 32.3534 38.6105 32.0787C38.1994 31.804 37.879 31.4136 37.6897 30.9568C37.5005 30.5 37.451 29.9973 37.5475 29.5123C37.6439 29.0274 37.882 28.5819 38.2317 28.2323C38.5813 27.8827 39.0268 27.6446 39.5117 27.5481C39.9967 27.4516 40.4993 27.5011 40.9561 27.6904C41.413 27.8796 41.8034 28.2 42.0781 28.6111C42.3528 29.0223 42.4994 29.5056 42.4994 30.0001C42.4994 30.6631 42.236 31.299 41.7672 31.7678C41.2984 32.2367 40.6625 32.5001 39.9994 32.5001Z" fill="#181A18"/>
</svg>
